# xmcd
#
# Track frame offsets:
#  150
#  14862
#  32123
#  52975
#  67643
#
# Disc length: 1150 seconds
#
# Revision: 0
# Processed by: cddbd v1.5.1PL2 Copyright (c) Steve Scherf et al.
# Submitted via: Collectorz.com_Music_Collector 6.9
#
DISCID=39047c05
DTITLE=Mag - Presto - 2006 Presto! 100
DYEAR=2006
DGENRE=Alt. Rock
TTITLE0=The Clerks - Long Lost Wind
TTITLE1=Klang - October
TTITLE2=Labo - Bristow
TTITLE3=Osni - Disco Love In My Heart
TTITLE4=Panik Club - Dans Ma Tête
EXTD=
EXTT0=
EXTT1=
EXTT2=
EXTT3=
EXTT4=
PLAYORDER=
